<mxfile host="app.diagrams.net" modified="2022-09-28T05:50:47.061Z" agent="5.0 (Windows NT 10.0; Win64; x64) AppleWebKit/537.36 (KHTML, like Gecko) Chrome/105.0.0.0 Safari/537.36 Edg/105.0.1343.50" etag="2iYJrRVp3heolEs1ZJEb" version="20.3.7" type="github">
  <diagram id="m22SceWH2I8n-WViizf_" name="第 1 页">
    <mxGraphModel dx="1421" dy="762" grid="1" gridSize="10" guides="1" tooltips="1" connect="1" arrows="1" fold="1" page="1" pageScale="1" pageWidth="827" pageHeight="1169" math="0" shadow="0">
      <root>
        <mxCell id="0" />
        <mxCell id="1" parent="0" />
        <mxCell id="i-ShAD-ru6G5tnip11lq-5" value="" style="edgeStyle=orthogonalEdgeStyle;rounded=0;orthogonalLoop=1;jettySize=auto;html=1;" edge="1" parent="1" source="i-ShAD-ru6G5tnip11lq-1" target="i-ShAD-ru6G5tnip11lq-4">
          <mxGeometry relative="1" as="geometry" />
        </mxCell>
        <mxCell id="i-ShAD-ru6G5tnip11lq-7" value="" style="edgeStyle=orthogonalEdgeStyle;rounded=0;orthogonalLoop=1;jettySize=auto;html=1;" edge="1" parent="1" source="i-ShAD-ru6G5tnip11lq-1" target="i-ShAD-ru6G5tnip11lq-6">
          <mxGeometry relative="1" as="geometry" />
        </mxCell>
        <mxCell id="i-ShAD-ru6G5tnip11lq-1" value="主路由&lt;br&gt;华硕AC87U" style="shape=mxgraph.cisco.routers.wireless_router;sketch=0;html=1;pointerEvents=1;dashed=0;fillColor=#036897;strokeColor=#ffffff;strokeWidth=2;verticalLabelPosition=bottom;verticalAlign=top;align=center;outlineConnect=0;" vertex="1" parent="1">
          <mxGeometry x="180" y="130" width="70" height="70" as="geometry" />
        </mxCell>
        <mxCell id="i-ShAD-ru6G5tnip11lq-3" value="" style="edgeStyle=orthogonalEdgeStyle;rounded=0;orthogonalLoop=1;jettySize=auto;html=1;" edge="1" parent="1" source="i-ShAD-ru6G5tnip11lq-2" target="i-ShAD-ru6G5tnip11lq-1">
          <mxGeometry relative="1" as="geometry" />
        </mxCell>
        <mxCell id="i-ShAD-ru6G5tnip11lq-2" value="运营商光猫" style="shape=mxgraph.cisco.routers.router;sketch=0;html=1;pointerEvents=1;dashed=0;fillColor=#036897;strokeColor=#ffffff;strokeWidth=2;verticalLabelPosition=bottom;verticalAlign=top;align=center;outlineConnect=0;" vertex="1" parent="1">
          <mxGeometry x="180" y="30" width="70" height="53" as="geometry" />
        </mxCell>
        <mxCell id="i-ShAD-ru6G5tnip11lq-4" value="添置机器&lt;br&gt;PC或服务器" style="shape=mxgraph.cisco.servers.standard_host;sketch=0;html=1;pointerEvents=1;dashed=0;fillColor=#036897;strokeColor=#ffffff;strokeWidth=2;verticalLabelPosition=bottom;verticalAlign=top;align=center;outlineConnect=0;" vertex="1" parent="1">
          <mxGeometry x="330" y="134" width="43" height="62" as="geometry" />
        </mxCell>
        <mxCell id="i-ShAD-ru6G5tnip11lq-6" value="多台其他电脑" style="shape=mxgraph.cisco.computers_and_peripherals.pc;sketch=0;html=1;pointerEvents=1;dashed=0;fillColor=#036897;strokeColor=#ffffff;strokeWidth=2;verticalLabelPosition=bottom;verticalAlign=top;align=center;outlineConnect=0;" vertex="1" parent="1">
          <mxGeometry x="30" y="130" width="78" height="70" as="geometry" />
        </mxCell>
        <mxCell id="i-ShAD-ru6G5tnip11lq-17" value="游戏服务" style="swimlane;fontStyle=0;childLayout=stackLayout;horizontal=1;startSize=26;fillColor=none;horizontalStack=0;resizeParent=1;resizeParentMax=0;resizeLast=0;collapsible=1;marginBottom=0;" vertex="1" parent="1">
          <mxGeometry x="281.5" y="260" width="140" height="52" as="geometry" />
        </mxCell>
        <mxCell id="i-ShAD-ru6G5tnip11lq-18" value="L4D2等" style="text;strokeColor=none;fillColor=none;align=left;verticalAlign=top;spacingLeft=4;spacingRight=4;overflow=hidden;rotatable=0;points=[[0,0.5],[1,0.5]];portConstraint=eastwest;" vertex="1" parent="i-ShAD-ru6G5tnip11lq-17">
          <mxGeometry y="26" width="140" height="26" as="geometry" />
        </mxCell>
        <mxCell id="i-ShAD-ru6G5tnip11lq-21" value="NAS服务" style="swimlane;fontStyle=0;childLayout=stackLayout;horizontal=1;startSize=26;fillColor=none;horizontalStack=0;resizeParent=1;resizeParentMax=0;resizeLast=0;collapsible=1;marginBottom=0;" vertex="1" parent="1">
          <mxGeometry x="282" y="340" width="140" height="78" as="geometry" />
        </mxCell>
        <mxCell id="i-ShAD-ru6G5tnip11lq-23" value="非重要文件存储" style="text;strokeColor=none;fillColor=none;align=left;verticalAlign=top;spacingLeft=4;spacingRight=4;overflow=hidden;rotatable=0;points=[[0,0.5],[1,0.5]];portConstraint=eastwest;" vertex="1" parent="i-ShAD-ru6G5tnip11lq-21">
          <mxGeometry y="26" width="140" height="26" as="geometry" />
        </mxCell>
        <mxCell id="i-ShAD-ru6G5tnip11lq-24" value="重要文件向云盘备份" style="text;strokeColor=none;fillColor=none;align=left;verticalAlign=top;spacingLeft=4;spacingRight=4;overflow=hidden;rotatable=0;points=[[0,0.5],[1,0.5]];portConstraint=eastwest;" vertex="1" parent="i-ShAD-ru6G5tnip11lq-21">
          <mxGeometry y="52" width="140" height="26" as="geometry" />
        </mxCell>
      </root>
    </mxGraphModel>
  </diagram>
</mxfile>
